<?xml version="1.0" encoding="UTF-8" standalone="no"?>
<svg
   xmlns:dc="http://purl.org/dc/elements/1.1/"
   xmlns:cc="http://creativecommons.org/ns#"
   xmlns:rdf="http://www.w3.org/1999/02/22-rdf-syntax-ns#"
   xmlns:svg="http://www.w3.org/2000/svg"
   xmlns="http://www.w3.org/2000/svg"
   xmlns:sodipodi="http://sodipodi.sourceforge.net/DTD/sodipodi-0.dtd"
   xmlns:inkscape="http://www.inkscape.org/namespaces/inkscape"
   viewBox="0 0 2160.00 1080.00"
   id="svg2"
   version="1.1"
   inkscape:version="0.48.4 r9939"
   width="100%"
   height="100%"
   sodipodi:docname="CARD_bars.svg"
   inkscape:export-filename="/media/strain/disco2/GIT/antibiotics/CARD_bars.png"
   inkscape:export-xdpi="171.21001"
   inkscape:export-ydpi="171.21001">
  <metadata
     id="metadata172">
    <rdf:RDF>
      <cc:Work
         rdf:about="">
        <dc:format>image/svg+xml</dc:format>
        <dc:type
           rdf:resource="http://purl.org/dc/dcmitype/StillImage" />
        <dc:title></dc:title>
      </cc:Work>
    </rdf:RDF>
  </metadata>
  <sodipodi:namedview
     pagecolor="#ffffff"
     bordercolor="#666666"
     borderopacity="1"
     objecttolerance="10"
     gridtolerance="10"
     guidetolerance="10"
     inkscape:pageopacity="0"
     inkscape:pageshadow="2"
     inkscape:window-width="1070"
     inkscape:window-height="822"
     id="namedview170"
     showgrid="false"
     inkscape:zoom="0.37712362"
     inkscape:cx="1080"
     inkscape:cy="540"
     inkscape:window-x="65"
     inkscape:window-y="24"
     inkscape:window-maximized="0"
     inkscape:current-layer="svg2" />
  <defs
     id="defs4">
    <style
       type="text/css"
       id="style6">
    line, polyline, polygon, path, rect, circle {
      fill: none;
      stroke: #000000;
      stroke-linecap: round;
      stroke-linejoin: round;
      stroke-miterlimit: 10.00;
    }
  </style>
  </defs>
  <rect
     width="2068.217"
     height="1034.1085"
     style="fill:#ffffff;stroke:none"
     id="rect8"
     x="38.975128"
     y="45.891445" />
  <defs
     id="defs12">
    <clipPath
       id="cpOTUuNjF8MjE1NC41Mnw5MjAuMDR8NS40OA==">
      <rect
         x="95.61"
         y="5.48"
         width="2058.91"
         height="914.56"
         id="rect15" />
    </clipPath>
  </defs>
  <rect
     x="95.610001"
     y="5.48"
     width="2058.9099"
     height="914.56"
     style="fill:#ebebeb;stroke:none"
     clip-path="url(#cpOTUuNjF8MjE1NC41Mnw5MjAuMDR8NS40OA==)"
     id="rect17"
     transform="matrix(0.95750792,0,0,0.95750792,38.975129,45.891447)" />
  <polyline
     points="95.61,749.97 2154.52,749.97 "
     style="fill:none;stroke:#ffffff;stroke-width:0.52999997;stroke-linecap:butt;stroke-linejoin:round;stroke-miterlimit:10"
     clip-path="url(#cpOTUuNjF8MjE1NC41Mnw5MjAuMDR8NS40OA==)"
     id="polyline19"
     transform="matrix(0.95750792,0,0,0.95750792,38.975129,45.891447)" />
  <polyline
     points="95.61,492.96 2154.52,492.96 "
     style="fill:none;stroke:#ffffff;stroke-width:0.52999997;stroke-linecap:butt;stroke-linejoin:round;stroke-miterlimit:10"
     clip-path="url(#cpOTUuNjF8MjE1NC41Mnw5MjAuMDR8NS40OA==)"
     id="polyline21"
     transform="matrix(0.95750792,0,0,0.95750792,38.975129,45.891447)" />
  <polyline
     points="95.61,235.95 2154.52,235.95 "
     style="fill:none;stroke:#ffffff;stroke-width:0.52999997;stroke-linecap:butt;stroke-linejoin:round;stroke-miterlimit:10"
     clip-path="url(#cpOTUuNjF8MjE1NC41Mnw5MjAuMDR8NS40OA==)"
     id="polyline23"
     transform="matrix(0.95750792,0,0,0.95750792,38.975129,45.891447)" />
  <polyline
     points="95.61,878.47 2154.52,878.47 "
     style="fill:none;stroke:#ffffff;stroke-width:1.07000005;stroke-linecap:butt;stroke-linejoin:round;stroke-miterlimit:10"
     clip-path="url(#cpOTUuNjF8MjE1NC41Mnw5MjAuMDR8NS40OA==)"
     id="polyline25"
     transform="matrix(0.95750792,0,0,0.95750792,38.975129,45.891447)" />
  <polyline
     points="95.61,621.46 2154.52,621.46 "
     style="fill:none;stroke:#ffffff;stroke-width:1.07000005;stroke-linecap:butt;stroke-linejoin:round;stroke-miterlimit:10"
     clip-path="url(#cpOTUuNjF8MjE1NC41Mnw5MjAuMDR8NS40OA==)"
     id="polyline27"
     transform="matrix(0.95750792,0,0,0.95750792,38.975129,45.891447)" />
  <polyline
     points="95.61,364.46 2154.52,364.46 "
     style="fill:none;stroke:#ffffff;stroke-width:1.07000005;stroke-linecap:butt;stroke-linejoin:round;stroke-miterlimit:10"
     clip-path="url(#cpOTUuNjF8MjE1NC41Mnw5MjAuMDR8NS40OA==)"
     id="polyline29"
     transform="matrix(0.95750792,0,0,0.95750792,38.975129,45.891447)" />
  <polyline
     points="95.61,107.45 2154.52,107.45 "
     style="fill:none;stroke:#ffffff;stroke-width:1.07000005;stroke-linecap:butt;stroke-linejoin:round;stroke-miterlimit:10"
     clip-path="url(#cpOTUuNjF8MjE1NC41Mnw5MjAuMDR8NS40OA==)"
     id="polyline31"
     transform="matrix(0.95750792,0,0,0.95750792,38.975129,45.891447)" />
  <polyline
     points="216.72,920.04 216.72,5.48 "
     style="fill:none;stroke:#ffffff;stroke-width:1.07000005;stroke-linecap:butt;stroke-linejoin:round;stroke-miterlimit:10"
     clip-path="url(#cpOTUuNjF8MjE1NC41Mnw5MjAuMDR8NS40OA==)"
     id="polyline33"
     transform="matrix(0.95750792,0,0,0.95750792,38.975129,45.891447)" />
  <polyline
     points="418.58,920.04 418.58,5.48 "
     style="fill:none;stroke:#ffffff;stroke-width:1.07000005;stroke-linecap:butt;stroke-linejoin:round;stroke-miterlimit:10"
     clip-path="url(#cpOTUuNjF8MjE1NC41Mnw5MjAuMDR8NS40OA==)"
     id="polyline35"
     transform="matrix(0.95750792,0,0,0.95750792,38.975129,45.891447)" />
  <polyline
     points="620.43,920.04 620.43,5.48 "
     style="fill:none;stroke:#ffffff;stroke-width:1.07000005;stroke-linecap:butt;stroke-linejoin:round;stroke-miterlimit:10"
     clip-path="url(#cpOTUuNjF8MjE1NC41Mnw5MjAuMDR8NS40OA==)"
     id="polyline37"
     transform="matrix(0.95750792,0,0,0.95750792,38.975129,45.891447)" />
  <polyline
     points="822.28,920.04 822.28,5.48 "
     style="fill:none;stroke:#ffffff;stroke-width:1.07000005;stroke-linecap:butt;stroke-linejoin:round;stroke-miterlimit:10"
     clip-path="url(#cpOTUuNjF8MjE1NC41Mnw5MjAuMDR8NS40OA==)"
     id="polyline39"
     transform="matrix(0.95750792,0,0,0.95750792,38.975129,45.891447)" />
  <polyline
     points="1024.14,920.04 1024.14,5.48 "
     style="fill:none;stroke:#ffffff;stroke-width:1.07000005;stroke-linecap:butt;stroke-linejoin:round;stroke-miterlimit:10"
     clip-path="url(#cpOTUuNjF8MjE1NC41Mnw5MjAuMDR8NS40OA==)"
     id="polyline41"
     transform="matrix(0.95750792,0,0,0.95750792,38.975129,45.891447)" />
  <polyline
     points="1225.99,920.04 1225.99,5.48 "
     style="fill:none;stroke:#ffffff;stroke-width:1.07000005;stroke-linecap:butt;stroke-linejoin:round;stroke-miterlimit:10"
     clip-path="url(#cpOTUuNjF8MjE1NC41Mnw5MjAuMDR8NS40OA==)"
     id="polyline43"
     transform="matrix(0.95750792,0,0,0.95750792,38.975129,45.891447)" />
  <polyline
     points="1427.85,920.04 1427.85,5.48 "
     style="fill:none;stroke:#ffffff;stroke-width:1.07000005;stroke-linecap:butt;stroke-linejoin:round;stroke-miterlimit:10"
     clip-path="url(#cpOTUuNjF8MjE1NC41Mnw5MjAuMDR8NS40OA==)"
     id="polyline45"
     transform="matrix(0.95750792,0,0,0.95750792,38.975129,45.891447)" />
  <polyline
     points="1629.70,920.04 1629.70,5.48 "
     style="fill:none;stroke:#ffffff;stroke-width:1.07000005;stroke-linecap:butt;stroke-linejoin:round;stroke-miterlimit:10"
     clip-path="url(#cpOTUuNjF8MjE1NC41Mnw5MjAuMDR8NS40OA==)"
     id="polyline47"
     transform="matrix(0.95750792,0,0,0.95750792,38.975129,45.891447)" />
  <polyline
     points="1831.55,920.04 1831.55,5.48 "
     style="fill:none;stroke:#ffffff;stroke-width:1.07000005;stroke-linecap:butt;stroke-linejoin:round;stroke-miterlimit:10"
     clip-path="url(#cpOTUuNjF8MjE1NC41Mnw5MjAuMDR8NS40OA==)"
     id="polyline49"
     transform="matrix(0.95750792,0,0,0.95750792,38.975129,45.891447)" />
  <polyline
     points="2033.41,920.04 2033.41,5.48 "
     style="fill:none;stroke:#ffffff;stroke-width:1.07000005;stroke-linecap:butt;stroke-linejoin:round;stroke-miterlimit:10"
     clip-path="url(#cpOTUuNjF8MjE1NC41Mnw5MjAuMDR8NS40OA==)"
     id="polyline51"
     transform="matrix(0.95750792,0,0,0.95750792,38.975129,45.891447)" />
  <rect
     x="125.89"
     y="834.78003"
     width="181.67"
     height="43.689999"
     style="fill:#595959;stroke:none"
     clip-path="url(#cpOTUuNjF8MjE1NC41Mnw5MjAuMDR8NS40OA==)"
     id="rect53"
     transform="matrix(0.95750792,0,0,0.95750792,38.975129,45.891447)" />
  <rect
     x="327.73999"
     y="834.78003"
     width="181.67"
     height="43.689999"
     style="fill:#595959;stroke:none"
     clip-path="url(#cpOTUuNjF8MjE1NC41Mnw5MjAuMDR8NS40OA==)"
     id="rect55"
     transform="matrix(0.95750792,0,0,0.95750792,38.975129,45.891447)" />
  <rect
     x="529.59998"
     y="825.78998"
     width="181.67"
     height="52.689999"
     style="fill:#595959;stroke:none"
     clip-path="url(#cpOTUuNjF8MjE1NC41Mnw5MjAuMDR8NS40OA==)"
     id="rect57"
     transform="matrix(0.95750792,0,0,0.95750792,38.975129,45.891447)" />
  <rect
     x="731.45001"
     y="825.78998"
     width="181.67"
     height="52.689999"
     style="fill:#595959;stroke:none"
     clip-path="url(#cpOTUuNjF8MjE1NC41Mnw5MjAuMDR8NS40OA==)"
     id="rect59"
     transform="matrix(0.95750792,0,0,0.95750792,38.975129,45.891447)" />
  <rect
     x="933.29999"
     y="824.5"
     width="181.67"
     height="53.970001"
     style="fill:#595959;stroke:none"
     clip-path="url(#cpOTUuNjF8MjE1NC41Mnw5MjAuMDR8NS40OA==)"
     id="rect61"
     transform="matrix(0.95750792,0,0,0.95750792,38.975129,45.891447)" />
  <rect
     x="1135.16"
     y="807.79999"
     width="181.67"
     height="70.68"
     style="fill:#595959;stroke:none"
     clip-path="url(#cpOTUuNjF8MjE1NC41Mnw5MjAuMDR8NS40OA==)"
     id="rect63"
     transform="matrix(0.95750792,0,0,0.95750792,38.975129,45.891447)" />
  <rect
     x="1337.01"
     y="746.10999"
     width="181.67"
     height="132.36"
     style="fill:#595959;stroke:none"
     clip-path="url(#cpOTUuNjF8MjE1NC41Mnw5MjAuMDR8NS40OA==)"
     id="rect65"
     transform="matrix(0.95750792,0,0,0.95750792,38.975129,45.891447)" />
  <rect
     x="1538.87"
     y="514.81"
     width="181.67"
     height="363.67001"
     style="fill:#595959;stroke:none"
     clip-path="url(#cpOTUuNjF8MjE1NC41Mnw5MjAuMDR8NS40OA==)"
     id="rect67"
     transform="matrix(0.95750792,0,0,0.95750792,38.975129,45.891447)" />
  <rect
     x="1740.72"
     y="490.39001"
     width="181.67"
     height="388.07999"
     style="fill:#595959;stroke:none"
     clip-path="url(#cpOTUuNjF8MjE1NC41Mnw5MjAuMDR8NS40OA==)"
     id="rect69"
     transform="matrix(0.95750792,0,0,0.95750792,38.975129,45.891447)" />
  <rect
     x="1942.5699"
     y="47.049999"
     width="181.67"
     height="831.41998"
     style="fill:#595959;stroke:none"
     clip-path="url(#cpOTUuNjF8MjE1NC41Mnw5MjAuMDR8NS40OA==)"
     id="rect71"
     transform="matrix(0.95750792,0,0,0.95750792,38.975129,45.891447)" />
  <defs
     id="defs73">
    <clipPath
       id="cpMC4wMHwyMTYwLjAwfDEwODAuMDB8MC4wMA==">
      <rect
         x="0.00"
         y="0.00"
         width="2160.00"
         height="1080.00"
         id="rect76" />
    </clipPath>
  </defs>
  <g
     clip-path="url(#cpMC4wMHwyMTYwLjAwfDEwODAuMDB8MC4wMA==)"
     id="g78"
     transform="matrix(0.95750792,0,0,0.95750792,38.975129,45.891447)">
    <text
       x="73.989998"
       y="889.21002"
       style="font-size:30px;fill:#4d4d4d;font-family:Arial"
       textLength="16.68px"
       lengthAdjust="spacingAndGlyphs"
       id="text80">0</text>
  </g>
  <g
     clip-path="url(#cpMC4wMHwyMTYwLjAwfDEwODAuMDB8MC4wMA==)"
     id="g82"
     transform="matrix(0.95750792,0,0,0.95750792,38.975129,45.891447)">
    <text
       x="40.630001"
       y="632.20001"
       style="font-size:30px;fill:#4d4d4d;font-family:Arial"
       textLength="50.05px"
       lengthAdjust="spacingAndGlyphs"
       id="text84">200</text>
  </g>
  <g
     clip-path="url(#cpMC4wMHwyMTYwLjAwfDEwODAuMDB8MC4wMA==)"
     id="g86"
     transform="matrix(0.95750792,0,0,0.95750792,38.975129,45.891447)">
    <text
       x="40.630001"
       y="375.19"
       style="font-size:30px;fill:#4d4d4d;font-family:Arial"
       textLength="50.05px"
       lengthAdjust="spacingAndGlyphs"
       id="text88">400</text>
  </g>
  <g
     clip-path="url(#cpMC4wMHwyMTYwLjAwfDEwODAuMDB8MC4wMA==)"
     id="g90"
     transform="matrix(0.95750792,0,0,0.95750792,38.975129,45.891447)">
    <text
       x="40.630001"
       y="118.18"
       style="font-size:30px;fill:#4d4d4d;font-family:Arial"
       textLength="50.05px"
       lengthAdjust="spacingAndGlyphs"
       id="text92">600</text>
  </g>
  <polyline
     points="92.87,878.47 95.61,878.47 "
     style="fill:none;stroke:#333333;stroke-width:1.07000005;stroke-linecap:butt;stroke-linejoin:round;stroke-miterlimit:10"
     clip-path="url(#cpMC4wMHwyMTYwLjAwfDEwODAuMDB8MC4wMA==)"
     id="polyline94"
     transform="matrix(0.95750792,0,0,0.95750792,38.975129,45.891447)" />
  <polyline
     points="92.87,621.46 95.61,621.46 "
     style="fill:none;stroke:#333333;stroke-width:1.07000005;stroke-linecap:butt;stroke-linejoin:round;stroke-miterlimit:10"
     clip-path="url(#cpMC4wMHwyMTYwLjAwfDEwODAuMDB8MC4wMA==)"
     id="polyline96"
     transform="matrix(0.95750792,0,0,0.95750792,38.975129,45.891447)" />
  <polyline
     points="92.87,364.46 95.61,364.46 "
     style="fill:none;stroke:#333333;stroke-width:1.07000005;stroke-linecap:butt;stroke-linejoin:round;stroke-miterlimit:10"
     clip-path="url(#cpMC4wMHwyMTYwLjAwfDEwODAuMDB8MC4wMA==)"
     id="polyline98"
     transform="matrix(0.95750792,0,0,0.95750792,38.975129,45.891447)" />
  <polyline
     points="92.87,107.45 95.61,107.45 "
     style="fill:none;stroke:#333333;stroke-width:1.07000005;stroke-linecap:butt;stroke-linejoin:round;stroke-miterlimit:10"
     clip-path="url(#cpMC4wMHwyMTYwLjAwfDEwODAuMDB8MC4wMA==)"
     id="polyline100"
     transform="matrix(0.95750792,0,0,0.95750792,38.975129,45.891447)" />
  <polyline
     points="216.72,922.78 216.72,920.04 "
     style="fill:none;stroke:#333333;stroke-width:1.07000005;stroke-linecap:butt;stroke-linejoin:round;stroke-miterlimit:10"
     clip-path="url(#cpMC4wMHwyMTYwLjAwfDEwODAuMDB8MC4wMA==)"
     id="polyline102"
     transform="matrix(0.95750792,0,0,0.95750792,38.975129,45.891447)" />
  <polyline
     points="418.58,922.78 418.58,920.04 "
     style="fill:none;stroke:#333333;stroke-width:1.07000005;stroke-linecap:butt;stroke-linejoin:round;stroke-miterlimit:10"
     clip-path="url(#cpMC4wMHwyMTYwLjAwfDEwODAuMDB8MC4wMA==)"
     id="polyline104"
     transform="matrix(0.95750792,0,0,0.95750792,38.975129,45.891447)" />
  <polyline
     points="620.43,922.78 620.43,920.04 "
     style="fill:none;stroke:#333333;stroke-width:1.07000005;stroke-linecap:butt;stroke-linejoin:round;stroke-miterlimit:10"
     clip-path="url(#cpMC4wMHwyMTYwLjAwfDEwODAuMDB8MC4wMA==)"
     id="polyline106"
     transform="matrix(0.95750792,0,0,0.95750792,38.975129,45.891447)" />
  <polyline
     points="822.28,922.78 822.28,920.04 "
     style="fill:none;stroke:#333333;stroke-width:1.07000005;stroke-linecap:butt;stroke-linejoin:round;stroke-miterlimit:10"
     clip-path="url(#cpMC4wMHwyMTYwLjAwfDEwODAuMDB8MC4wMA==)"
     id="polyline108"
     transform="matrix(0.95750792,0,0,0.95750792,38.975129,45.891447)" />
  <polyline
     points="1024.14,922.78 1024.14,920.04 "
     style="fill:none;stroke:#333333;stroke-width:1.07000005;stroke-linecap:butt;stroke-linejoin:round;stroke-miterlimit:10"
     clip-path="url(#cpMC4wMHwyMTYwLjAwfDEwODAuMDB8MC4wMA==)"
     id="polyline110"
     transform="matrix(0.95750792,0,0,0.95750792,38.975129,45.891447)" />
  <polyline
     points="1225.99,922.78 1225.99,920.04 "
     style="fill:none;stroke:#333333;stroke-width:1.07000005;stroke-linecap:butt;stroke-linejoin:round;stroke-miterlimit:10"
     clip-path="url(#cpMC4wMHwyMTYwLjAwfDEwODAuMDB8MC4wMA==)"
     id="polyline112"
     transform="matrix(0.95750792,0,0,0.95750792,38.975129,45.891447)" />
  <polyline
     points="1427.85,922.78 1427.85,920.04 "
     style="fill:none;stroke:#333333;stroke-width:1.07000005;stroke-linecap:butt;stroke-linejoin:round;stroke-miterlimit:10"
     clip-path="url(#cpMC4wMHwyMTYwLjAwfDEwODAuMDB8MC4wMA==)"
     id="polyline114"
     transform="matrix(0.95750792,0,0,0.95750792,38.975129,45.891447)" />
  <polyline
     points="1629.70,922.78 1629.70,920.04 "
     style="fill:none;stroke:#333333;stroke-width:1.07000005;stroke-linecap:butt;stroke-linejoin:round;stroke-miterlimit:10"
     clip-path="url(#cpMC4wMHwyMTYwLjAwfDEwODAuMDB8MC4wMA==)"
     id="polyline116"
     transform="matrix(0.95750792,0,0,0.95750792,38.975129,45.891447)" />
  <polyline
     points="1831.55,922.78 1831.55,920.04 "
     style="fill:none;stroke:#333333;stroke-width:1.07000005;stroke-linecap:butt;stroke-linejoin:round;stroke-miterlimit:10"
     clip-path="url(#cpMC4wMHwyMTYwLjAwfDEwODAuMDB8MC4wMA==)"
     id="polyline118"
     transform="matrix(0.95750792,0,0,0.95750792,38.975129,45.891447)" />
  <polyline
     points="2033.41,922.78 2033.41,920.04 "
     style="fill:none;stroke:#333333;stroke-width:1.07000005;stroke-linecap:butt;stroke-linejoin:round;stroke-miterlimit:10"
     clip-path="url(#cpMC4wMHwyMTYwLjAwfDEwODAuMDB8MC4wMA==)"
     id="polyline120"
     transform="matrix(0.95750792,0,0,0.95750792,38.975129,45.891447)" />
  <g
     clip-path="url(#cpMC4wMHwyMTYwLjAwfDEwODAuMDB8MC4wMA==)"
     id="g122"
     transform="matrix(0.95750792,0,0,0.95750792,38.975129,45.891447)">
    <text
       transform="matrix(0.8660254,-0.5,0.5,0.8660254,139.78,1050.1)"
       style="font-size:30px;fill:#4d4d4d;font-family:Arial"
       textLength="190.09px"
       lengthAdjust="spacingAndGlyphs"
       id="text124">Acetyltransf_1</text>
  </g>
  <g
     clip-path="url(#cpMC4wMHwyMTYwLjAwfDEwODAuMDB8MC4wMA==)"
     id="g126"
     transform="matrix(0.95750792,0,0,0.95750792,38.975129,45.891447)">
    <text
       transform="matrix(0.8660254,-0.5,0.5,0.8660254,377.74,1029.26)"
       style="font-size:30px;fill:#4d4d4d;font-family:Arial"
       textLength="106.70px"
       lengthAdjust="spacingAndGlyphs"
       id="text128">RrnaAD</text>
  </g>
  <g
     clip-path="url(#cpMC4wMHwyMTYwLjAwfDEwODAuMDB8MC4wMA==)"
     id="g130"
     transform="matrix(0.95750792,0,0,0.95750792,38.975129,45.891447)">
    <text
       transform="matrix(0.8660254,-0.5,0.5,0.8660254,565.14,1037.6)"
       style="font-size:30px;fill:#4d4d4d;font-family:Arial"
       textLength="140.08px"
       lengthAdjust="spacingAndGlyphs"
       id="text132">EptA_B_N</text>
  </g>
  <g
     clip-path="url(#cpMC4wMHwyMTYwLjAwfDEwODAuMDB8MC4wMA==)"
     id="g134"
     transform="matrix(0.95750792,0,0,0.95750792,38.975129,45.891447)">
    <text
       transform="matrix(0.8660254,-0.5,0.5,0.8660254,736.64,1055.13)"
       style="font-size:30px;fill:#4d4d4d;font-family:Arial"
       textLength="210.19px"
       lengthAdjust="spacingAndGlyphs"
       id="text136">Pentapeptide_4</text>
  </g>
  <g
     clip-path="url(#cpMC4wMHwyMTYwLjAwfDEwODAuMDB8MC4wMA==)"
     id="g138"
     transform="matrix(0.95750792,0,0,0.95750792,38.975129,45.891447)">
    <text
       transform="matrix(0.8660254,-0.5,0.5,0.8660254,1002.8,1018)"
       style="font-size:30px;fill:#4d4d4d;font-family:Arial"
       textLength="61.68px"
       lengthAdjust="spacingAndGlyphs"
       id="text140">APH</text>
  </g>
  <g
     clip-path="url(#cpMC4wMHwyMTYwLjAwfDEwODAuMDB8MC4wMA==)"
     id="g142"
     transform="matrix(0.95750792,0,0,0.95750792,38.975129,45.891447)">
    <text
       transform="matrix(0.8660254,-0.5,0.5,0.8660254,1189.49,1026.75)"
       style="font-size:30px;fill:#4d4d4d;font-family:Arial"
       textLength="96.69px"
       lengthAdjust="spacingAndGlyphs"
       id="text144">MFS_1</text>
  </g>
  <g
     clip-path="url(#cpMC4wMHwyMTYwLjAwfDEwODAuMDB8MC4wMA==)"
     id="g146"
     transform="matrix(0.95750792,0,0,0.95750792,38.975129,45.891447)">
    <text
       transform="matrix(0.8660254,-0.5,0.5,0.8660254,1353.78,1048.44)"
       style="font-size:30px;fill:#4d4d4d;font-family:Arial"
       textLength="183.44px"
       lengthAdjust="spacingAndGlyphs"
       id="text148">Lactamase_B</text>
  </g>
  <g
     clip-path="url(#cpMC4wMHwyMTYwLjAwfDEwODAuMDB8MC4wMA==)"
     id="g150"
     transform="matrix(0.95750792,0,0,0.95750792,38.975129,45.891447)">
    <text
       transform="matrix(0.8660254,-0.5,0.5,0.8660254,1545.52,1054.28)"
       style="font-size:30px;fill:#4d4d4d;font-family:Arial"
       textLength="206.79px"
       lengthAdjust="spacingAndGlyphs"
       id="text152">Transpeptidase</text>
  </g>
  <g
     clip-path="url(#cpMC4wMHwyMTYwLjAwfDEwODAuMDB8MC4wMA==)"
     id="g154"
     transform="matrix(0.95750792,0,0,0.95750792,38.975129,45.891447)">
    <text
       transform="matrix(0.8660254,-0.5,0.5,0.8660254,1746.67,1054.69)"
       style="font-size:30px;fill:#4d4d4d;font-family:Arial"
       textLength="208.43px"
       lengthAdjust="spacingAndGlyphs"
       id="text156">Beta-lactamase</text>
  </g>
  <g
     clip-path="url(#cpMC4wMHwyMTYwLjAwfDEwODAuMDB8MC4wMA==)"
     id="g158"
     transform="matrix(0.95750792,0,0,0.95750792,38.975129,45.891447)">
    <text
       transform="matrix(0.8660254,-0.5,0.5,0.8660254,1941.3,1058.86)"
       style="font-size:30px;fill:#4d4d4d;font-family:Arial"
       textLength="225.12px"
       lengthAdjust="spacingAndGlyphs"
       id="text160">Beta-lactamase2</text>
  </g>
  <g
     clip-path="url(#cpMC4wMHwyMTYwLjAwfDEwODAuMDB8MC4wMA==)"
     id="g162"
     transform="matrix(0.95750792,0,0,0.95750792,38.975129,45.891447)">
    <text
       x="1058.1801"
       y="1066.21"
       style="font-size:11px;font-family:Arial"
       textLength="53.78px"
       lengthAdjust="spacingAndGlyphs"
       id="text164">
      <tspan
         style="font-size:30px"
         id="tspan3149">CARD Family</tspan>
    </text>
  </g>
  <g
     clip-path="url(#cpMC4wMHwyMTYwLjAwfDEwODAuMDB8MC4wMA==)"
     id="g166"
     transform="matrix(0.95750792,0,0,0.95750792,8.507414,50.9694)">
    <text
       transform="matrix(0,-1,1,0,0,0)"
       style="font-size:35px;font-family:Arial"
       textLength="85.62px"
       lengthAdjust="spacingAndGlyphs"
       id="text168"
       x="-571.86127"
       y="33.181652">Number of genes</text>
  </g>
</svg>
